<svg width="139" height="139" viewBox="0 0 139 139" fill="none" xmlns="http://www.w3.org/2000/svg">
<path opacity="0.9" fillRule="evenodd" clipRule="evenodd" d="M66.3677 0.0099962C90.5653 -0.348028 110.102 8.91123 124.979 27.7878C137.695 45.726 141.46 65.4174 136.275 86.8618C131.09 105.047 120.442 119.029 104.331 128.806C85.6023 139.152 66.0961 140.88 45.8122 133.991C26.2443 126.399 12.5714 112.85 4.79367 93.3433C-2.56435 72.0717 -0.527315 51.7631 10.9048 32.4174C24.0406 12.6026 42.5282 1.80012 66.3677 0.0099962ZM121.831 96.1211C122.176 96.1705 122.516 96.2631 122.849 96.3989C123.886 97.547 123.763 98.5655 122.479 99.4544C123.652 100.232 123.837 101.189 123.034 102.325C124.578 102.448 126.121 102.448 127.664 102.325C137.034 85.4112 139.01 67.6643 133.59 49.0841C129.874 37.6026 123.454 27.6335 114.331 19.1767C96.1085 3.68284 75.306 -1.25544 51.9233 4.36185C30.7875 10.6828 15.8801 23.9853 7.20108 44.2693C0.818364 61.01 0.910957 77.7075 7.47886 94.3618C8.71343 94.4483 9.94799 94.4791 11.1826 94.4544C11.1579 93.7137 11.1887 92.973 11.2752 92.2322C11.5097 91.2816 12.0035 91.0964 12.7566 91.6767C13.0035 92.5902 13.0961 93.5162 13.0344 94.4544H17.1085C17.1455 93.5902 17.2381 92.726 17.3863 91.8618C17.6332 91.3433 18.0344 91.189 18.59 91.3989C18.9727 92.3742 19.1579 93.3927 19.1455 94.4544H23.2196C23.1949 93.7137 23.2258 92.973 23.3122 92.2322C23.5468 91.2816 24.0406 91.0964 24.7937 91.6767C25.0406 92.5902 25.1332 93.5162 25.0714 94.4544C26.3677 94.4297 27.664 94.4606 28.9603 94.547C29.5035 95.189 29.4418 95.7446 28.7752 96.2137C27.5406 96.3001 26.306 96.331 25.0714 96.3063V98.3433C26.3677 98.3186 27.664 98.3495 28.9603 98.4359C29.5035 99.0779 29.4418 99.6334 28.7752 100.103C27.5406 100.189 26.306 100.22 25.0714 100.195V102.417H30.9974C30.5406 94.3557 29.3986 86.3927 27.5714 78.5285C27.127 78.4915 26.664 78.4606 26.1826 78.4359C25.8245 78.0409 25.7319 77.5779 25.9048 77.047C28.411 75.652 30.911 74.2631 33.4048 72.8804C45.664 65.0038 57.4542 56.4853 68.7751 47.3248C69.2072 47.2014 69.6393 47.2014 70.0714 47.3248C78.6887 54.2137 87.5159 60.8186 96.5529 67.1396C101.787 70.7939 107.25 74.0964 112.942 77.047C113.115 77.5779 113.022 78.0409 112.664 78.4359C112.183 78.4606 111.72 78.4915 111.275 78.5285C109.423 86.3927 108.281 94.3557 107.849 102.417C109.392 102.442 110.936 102.411 112.479 102.325C111.862 101.201 112.047 100.245 113.034 99.4544C112.664 99.2322 112.386 98.9236 112.201 98.5285C111.806 96.9976 112.392 96.1643 113.96 96.0285C112.763 94.4236 112.732 92.7878 113.868 91.1211L115.72 88.8989C115.843 88.0841 115.689 87.3125 115.257 86.5841C115.331 86.3125 115.454 86.0656 115.627 85.8433C117.676 86.1026 119.004 87.2446 119.608 89.2693C120.275 89.7384 120.769 90.3557 121.09 91.1211C122.041 93.0717 121.825 94.8618 120.442 96.4915C120.911 96.3927 121.374 96.2692 121.831 96.1211ZM102.294 25.1952C106.331 25.4915 109.201 27.5285 110.905 31.3063C112.707 37.3433 110.825 41.8186 105.257 44.7322C103.516 45.4359 101.726 45.6211 99.8863 45.2878C105.825 42.7569 108.263 38.2816 107.201 31.8618C106.436 28.973 104.8 26.7507 102.294 25.1952ZM29.3307 77.6026C30.7134 83.4668 31.7011 89.3927 32.2937 95.3804C34.7011 95.4421 37.1085 95.3804 39.5159 95.1952C37.5035 90.3186 35.4974 85.4421 33.4974 80.5656C33.3492 80.0841 33.3801 79.6211 33.59 79.1767C38.7628 77.8557 43.7628 76.0656 48.59 73.8063C55.7258 70.4359 62.6702 66.7631 69.4233 62.7878C76.1764 66.7631 83.1208 70.4359 90.2566 73.8063C95.1085 76.0409 100.108 77.8618 105.257 79.2693C105.454 79.689 105.485 80.1211 105.349 80.5656C103.337 85.4421 101.331 90.3186 99.3307 95.1952C101.738 95.3804 104.146 95.4421 106.553 95.3804C107.108 89.3804 108.096 83.4544 109.516 77.6026C95.4542 69.0964 82.0591 59.652 69.3307 49.2693C56.7134 59.7137 43.3801 69.1581 29.3307 77.6026ZM69.4233 65.5656C68.6579 66.652 67.948 67.7631 67.2937 68.8989C68.7134 67.6643 70.1332 67.6643 71.5529 68.8989C70.8986 67.7631 70.1887 66.652 69.4233 65.5656ZM42.3863 78.5285C44.3492 83.5409 46.3863 88.5409 48.4974 93.5285C54.3739 84.726 60.2072 75.8989 65.9974 67.047C58.3677 71.3433 50.4974 75.1705 42.3863 78.5285ZM90.2566 93.3433C92.4912 88.4544 94.5591 83.5162 96.4603 78.5285C88.3492 75.1705 80.4789 71.3433 72.8492 67.047C78.5653 75.8618 84.3677 84.6273 90.2566 93.3433ZM50.8122 93.5285C53.0344 93.7137 55.2566 93.7754 57.4789 93.7137C57.4171 92.3433 57.5097 90.9853 57.7566 89.6396C57.9789 89.1952 58.2875 88.8248 58.6826 88.5285C58.8307 87.6149 59.2628 86.8742 59.9789 86.3063C60.0282 84.4051 60.985 83.3248 62.8492 83.0656C65.0344 82.7693 67.2258 82.4915 69.4233 82.2322C71.9295 82.5038 74.4295 82.8433 76.9233 83.2507C78.2443 83.831 78.8924 84.8495 78.8677 86.3063C79.5838 86.8742 80.0159 87.6149 80.164 88.5285C80.5591 88.8248 80.8677 89.1952 81.09 89.6396C81.3369 90.9853 81.4295 92.3433 81.3677 93.7137C83.59 93.7754 85.8122 93.7137 88.0344 93.5285C82.5776 85.2693 77.0838 77.0594 71.5529 68.8989C72.1332 70.1581 72.2258 71.4544 71.8307 72.7878C70.2258 73.0347 68.6208 73.0347 67.0159 72.7878C66.6085 71.4544 66.7011 70.1581 67.2937 68.8989C61.7628 77.0594 56.269 85.2693 50.8122 93.5285ZM68.59 71.1211H70.0714C70.2196 70.4421 69.9727 70.01 69.3307 69.8248C68.8492 70.1088 68.6023 70.5409 68.59 71.1211ZM35.627 80.7507C38.3801 87.3557 41.127 93.9606 43.8677 100.566C44.9418 98.8248 46.0838 97.1273 47.2937 95.473C45.0838 90.2754 42.8924 85.0594 40.7196 79.8248C40.6085 79.3927 40.3307 79.2075 39.8863 79.2693C38.4789 79.7631 37.0591 80.2569 35.627 80.7507ZM91.5529 95.3804C92.7258 97.0841 93.8677 98.8125 94.9789 100.566C97.7196 93.9606 100.466 87.3557 103.22 80.7507C101.652 80.1458 100.047 79.652 98.4048 79.2693C96.1579 84.652 93.8739 90.0223 91.5529 95.3804ZM62.4789 85.1026C62.0838 85.3372 61.8986 85.6767 61.9233 86.1211C63.5406 86.047 65.1455 86.1396 66.7381 86.3989C67.5035 86.7322 67.8739 87.3186 67.8492 88.1581H70.9974C70.9727 87.3186 71.343 86.7322 72.1085 86.3989C73.7011 86.1396 75.306 86.047 76.9233 86.1211C76.948 85.6767 76.7628 85.3372 76.3677 85.1026C73.8492 84.6581 71.3184 84.3186 68.7751 84.0841C66.7011 84.4297 64.6023 84.7693 62.4789 85.1026ZM117.016 90.01C116.201 90.8865 115.46 91.8125 114.794 92.7878C114.584 93.5532 114.707 94.2322 115.164 94.8248C115.769 94.3186 116.201 93.7014 116.46 92.973L117.757 92.047C117.769 91.3927 117.862 90.7137 118.034 90.01C118.096 89.4544 117.911 89.0223 117.479 88.7137C117.38 89.1581 117.226 89.5902 117.016 90.01ZM59.3307 92.047H62.8492V90.01H59.7011C59.4048 90.652 59.2813 91.331 59.3307 92.047ZM64.7011 92.047H68.4048V90.01H64.7011V92.047ZM70.4418 92.047H74.1455V90.01H70.4418V92.047ZM75.9974 92.047H79.3307C79.3801 91.3804 79.3184 90.7322 79.1455 90.1026C78.0961 90.0162 77.0468 89.9853 75.9974 90.01V92.047ZM118.775 92.51C118.874 92.6088 118.936 92.7322 118.96 92.8804C118.454 93.6952 118.639 94.3433 119.516 94.8248C119.75 94.7137 119.905 94.5285 119.979 94.2693C120.139 93.3927 119.985 92.5902 119.516 91.8618C119.318 92.1211 119.071 92.3372 118.775 92.51ZM117.294 96.1211C116.738 96.1828 116.306 96.4297 115.997 96.8618C116.578 97.2075 117.195 97.4544 117.849 97.6026C118.417 97.4051 118.973 97.189 119.516 96.9544C119.257 96.8804 119.01 96.7878 118.775 96.6767C118.442 96.1952 118.071 95.7631 117.664 95.3804C117.639 95.6767 117.516 95.9236 117.294 96.1211ZM44.8863 102.325C47.2937 102.473 49.7011 102.442 52.1085 102.232C53.1085 100.047 54.1579 97.8865 55.2566 95.7507C53.2813 95.5655 51.306 95.5038 49.3307 95.5655C47.9233 97.8495 46.4418 100.103 44.8863 102.325ZM59.2381 96.6767C58.2381 97.2199 57.6208 96.9112 57.3863 95.7507C56.3986 97.689 55.4418 99.6334 54.5159 101.584C64.4542 101.708 74.3924 101.708 84.3307 101.584C83.343 99.6581 82.3863 97.7137 81.4603 95.7507C81.3739 96.0717 81.2505 96.3804 81.09 96.6767C79.9542 97.2322 79.3677 96.8618 79.3307 95.5655H59.3307C59.3554 95.9359 59.3245 96.3063 59.2381 96.6767ZM86.7381 102.232C89.0838 102.479 91.4295 102.479 93.7751 102.232C92.4048 100.035 90.985 97.8742 89.5159 95.7507C87.5406 95.5655 85.5653 95.5038 83.59 95.5655L86.7381 102.232ZM9.14552 98.1581C9.81219 98.3433 10.4912 98.4051 11.1826 98.3433V96.3063C10.1579 96.2446 9.17022 96.3063 8.2196 96.4915C8.56528 97.01 8.87392 97.5655 9.14552 98.1581ZM13.0344 98.3433H17.1085V96.3063H13.0344V98.3433ZM19.1455 98.3433H23.2196V96.3063H19.1455V98.3433ZM32.8492 101.677C35.9356 101.738 39.0221 101.677 42.1085 101.491C41.5035 100.084 40.948 98.6643 40.4418 97.2322H32.4789L32.8492 101.677ZM96.7381 101.491C99.8245 101.677 102.911 101.738 105.997 101.677C106.108 100.195 106.232 98.7137 106.368 97.2322H98.4048C97.8986 98.6643 97.343 100.084 96.7381 101.491ZM113.405 97.8804L119.701 100.473C119.997 100.596 120.244 100.535 120.442 100.288C118.158 99.3865 115.874 98.4915 113.59 97.6026C113.565 97.7137 113.504 97.8063 113.405 97.8804ZM119.701 98.4359C119.936 98.4976 120.152 98.5902 120.349 98.7137C120.855 98.4791 121.38 98.2631 121.923 98.0655C122.096 97.7692 121.973 97.6149 121.553 97.6026C120.973 97.9359 120.355 98.2137 119.701 98.4359ZM11.1826 100.195H10.2566C10.9356 102.319 11.2443 102.319 11.1826 100.195ZM13.0344 102.417H17.1085V100.195H13.0344V102.417ZM19.1455 102.417H23.2196V100.195H19.1455V102.417ZM115.812 100.473C115.541 100.238 115.294 100.208 115.071 100.38C115.306 100.553 115.553 100.584 115.812 100.473ZM121.831 101.306C122.238 101.059 122.207 100.936 121.738 100.936C121.713 101.072 121.744 101.195 121.831 101.306ZM115.071 102.325C116.862 102.448 118.652 102.448 120.442 102.325C119.491 101.856 118.504 101.516 117.479 101.306C116.713 101.701 115.911 102.041 115.071 102.325ZM18.3122 112.417C34.5221 130.454 54.7381 138.14 78.9603 135.473C99.4789 132.103 115.343 121.732 126.553 104.362C88.4912 104.214 50.4665 104.245 12.4789 104.454C14.306 107.183 16.2505 109.837 18.3122 112.417Z" fill="white"/>
<path opacity="0.9" fillRule="evenodd" clipRule="evenodd" d="M33.0344 22.9731C33.269 22.9855 33.4233 23.1089 33.4974 23.3435C33.6826 24.0719 33.7751 24.8127 33.7751 25.5657C34.5282 25.6028 35.269 25.6954 35.9974 25.8435C36.269 25.9793 36.3924 26.1954 36.3677 26.4917C35.5529 26.5657 34.7505 26.6892 33.9603 26.862C33.7505 27.5904 33.5961 28.3312 33.4974 29.0843C33.3122 29.2447 33.0961 29.3065 32.8492 29.2694C32.7751 28.4546 32.6517 27.6522 32.4789 26.862C31.6887 26.6892 30.8863 26.5657 30.0714 26.4917C30.0468 26.1954 30.1702 25.9793 30.4418 25.8435C31.1702 25.7201 31.8801 25.5657 32.5714 25.3806C32.6208 24.5534 32.7751 23.7509 33.0344 22.9731Z" fill="#27422B"/>
<path opacity="0.9" fillRule="evenodd" clipRule="evenodd" d="M100.442 22.9731C108.392 23.2201 112.775 27.2941 113.59 35.1954C112.911 42.6645 108.837 46.7386 101.368 47.4176C99.1208 47.3559 97.022 46.7694 95.0714 45.6583C94.8245 45.1645 94.8245 44.6707 95.0714 44.1768C100.701 44.1028 104.189 41.3559 105.534 35.9361C105.781 30.2818 103.158 26.7324 97.664 25.288C97.022 24.8312 96.9603 24.3065 97.4788 23.7139C98.4665 23.3435 99.4541 23.0966 100.442 22.9731ZM102.294 25.1954C104.8 26.7509 106.436 28.9731 107.201 31.862C108.263 38.2818 105.825 42.7571 99.8862 45.288C101.726 45.6213 103.516 45.4361 105.257 44.7324C110.825 41.8188 112.707 37.3435 110.905 31.3065C109.201 27.5287 106.331 25.4917 102.294 25.1954Z" fill="#27422B"/>
<path opacity="0.8" fillRule="evenodd" clipRule="evenodd" d="M58.9605 23.1581C60.2568 23.121 60.5655 23.6457 59.8865 24.7322C58.5778 24.8186 58.2692 24.2939 58.9605 23.1581Z" fill="#27422B"/>
<path opacity="0.9" fillRule="evenodd" clipRule="evenodd" d="M79.8863 35.0099C80.1333 34.9729 80.3493 35.0346 80.5345 35.1951C80.7073 35.9852 80.7999 36.7877 80.8123 37.6025C81.3678 37.5778 81.9234 37.6087 82.4789 37.6951C82.874 37.7075 83.1826 37.8618 83.4049 38.1581C82.6024 38.5778 81.7382 38.763 80.8123 38.7136C80.8616 39.6396 80.6765 40.5038 80.2567 41.3062C79.9851 41.1457 79.8308 40.8988 79.7937 40.5655C79.7073 39.9482 79.6765 39.3309 79.7012 38.7136C78.8863 38.726 78.0839 38.6334 77.2937 38.4359C77.1333 38.2507 77.0715 38.0346 77.1086 37.7877C77.911 37.6889 78.7135 37.5963 79.516 37.5099C79.6888 36.6951 79.8123 35.8618 79.8863 35.0099Z" fill="#27422B"/>
<path opacity="0.8" fillRule="evenodd" clipRule="evenodd" d="M13.5897 40.1953C14.6391 40.2077 14.9478 40.7015 14.5157 41.6768C13.7379 42.0595 13.2441 41.8435 13.0342 41.0286C13.1206 40.6706 13.3058 40.3928 13.5897 40.1953Z" fill="#27422B"/>
<path opacity="0.8" fillRule="evenodd" clipRule="evenodd" d="M44.1453 43.1582C45.2071 43.2076 45.5157 43.7323 45.0713 44.7323C43.5281 44.8928 43.2194 44.3681 44.1453 43.1582Z" fill="#27422B"/>
<path opacity="0.8" fillRule="evenodd" clipRule="evenodd" d="M95.4417 59.2692C96.5898 59.1334 96.9602 59.5964 96.5528 60.6581C95.775 61.1025 95.2812 60.8865 95.0713 60.0099C95.1207 59.7136 95.2441 59.4667 95.4417 59.2692Z" fill="#27422B"/>
<path opacity="0.8" fillRule="evenodd" clipRule="evenodd" d="M26.5529 60.0101C27.5652 59.7632 28.0282 60.1336 27.9418 61.1212C27.5467 61.6521 27.0837 61.7447 26.5529 61.399C26.3183 60.9422 26.3183 60.4792 26.5529 60.0101Z" fill="#27422B"/>
<path opacity="0.8" fillRule="evenodd" clipRule="evenodd" d="M116.923 61.1211C118.207 60.9853 118.578 61.4791 118.034 62.6026C116.788 62.8371 116.417 62.3433 116.923 61.1211Z" fill="#27422B"/>
<path opacity="0.9" fillRule="evenodd" clipRule="evenodd" d="M71.5531 68.8991C72.1333 70.1583 72.2259 71.4546 71.8309 72.788C70.2259 73.0349 68.621 73.0349 67.0161 72.788C66.6087 71.4546 66.7012 70.1583 67.2938 68.8991C68.7136 67.6645 70.1333 67.6645 71.5531 68.8991ZM69.3309 69.825C68.8494 70.1089 68.6025 70.541 68.5901 71.1213H70.0716C70.2198 70.4423 69.9729 70.0102 69.3309 69.825Z" fill="#27422B"/>
</svg>
