<svg width="139" height="138" viewBox="0 0 139 138" fill="none" xmlns="http://www.w3.org/2000/svg">
<path opacity="0.9" fillRule="evenodd" clipRule="evenodd" d="M66.3421 0.023408C87.9541 -0.479768 106.087 7.12924 120.74 22.8504C135.922 40.7316 141.137 61.2268 136.388 84.3361C131.025 105.212 118.783 120.583 99.6622 130.45C79.9033 139.52 60.0831 139.643 40.2015 130.819C22.0258 121.774 9.84526 107.568 3.65988 88.202C-2.35369 65.7308 1.51217 45.1743 15.2575 26.5322C28.3769 10.2956 45.4051 1.4593 66.3421 0.023408ZM60.0831 2.6927C37.9924 6.46038 21.4858 18.058 10.5632 37.4855C13.1773 41.4618 15.8159 45.4197 18.479 49.3592C22.6885 42.7934 26.8919 36.2275 31.0891 29.6617C37.0536 38.7189 43.0672 47.7392 49.1298 56.7228C55.3152 47.0029 61.4515 37.2462 67.5387 27.4526C74.2518 37.3321 80.879 47.2729 87.4203 57.275L104.909 29.6617C108.578 35.2212 112.291 40.7439 116.046 46.2297C119.482 42.2779 122.888 38.2893 126.263 34.2639C126.361 33.9326 126.3 33.6258 126.079 33.3435C111.769 12.026 91.6727 1.5943 65.7898 2.04838C63.9121 2.24475 62.0099 2.45952 60.0831 2.6927ZM45.7242 11.2528C49.7618 11.5842 52.0323 13.7626 52.5355 17.788C52.2532 20.7702 50.7191 22.7952 47.9332 23.8629C44.3496 24.5993 41.7417 23.3413 40.1095 20.0891C38.9927 16.2232 40.2506 13.4312 43.8833 11.713L45.7242 11.2528ZM46.4605 64.4545C45.9083 64.1477 45.4174 63.7795 44.9878 63.35C45.9451 61.7668 46.9269 60.202 47.9332 58.6557C42.3124 50.2122 36.6977 41.7747 31.0891 33.3435L14.8893 59.1159C14.7297 59.4473 14.4843 59.6927 14.1529 59.8523C13.5884 59.5946 13.0668 59.2571 12.5882 58.8398C14.1713 56.4098 15.7054 53.9553 17.1904 51.4762C14.7113 47.4754 12.1648 43.5175 9.55072 39.6025C8.23755 42.4252 7.07165 45.3093 6.05303 48.2547C0.469002 66.7617 2.27921 84.4956 11.4837 101.456C13.1404 101.64 14.7972 101.702 16.454 101.64C16.4909 98.3268 16.4602 95.0132 16.362 91.6996C15.957 92.0433 15.6195 92.4421 15.3495 92.8962C14.0609 93.2644 13.5393 92.8042 13.7848 91.5155C14.6929 90.5092 15.552 89.466 16.362 88.386C16.4847 88.0179 16.4847 87.6497 16.362 87.2815C16.0306 87.797 15.6318 88.2572 15.1654 88.6622C13.9627 88.9444 13.5025 88.4842 13.7848 87.2815C14.5948 86.2015 15.4538 85.1583 16.362 84.152C16.4847 83.7838 16.4847 83.4156 16.362 83.0475C15.9693 83.7715 15.3863 84.2625 14.6132 84.5202C13.6804 84.1765 13.4657 83.5629 13.9688 82.6793L16.362 79.7339C16.4847 79.3657 16.4847 78.9975 16.362 78.6293C16.0306 79.1448 15.6318 79.605 15.1654 80.01C14.3063 80.3168 13.8154 80.0407 13.6927 79.1816C14.3554 77.8071 15.2452 76.5798 16.362 75.4998C16.4847 75.1316 16.4847 74.7635 16.362 74.3953C15.957 74.7389 15.6195 75.1378 15.3495 75.5919C14.0977 75.9969 13.5761 75.5366 13.7848 74.2112C14.6929 73.2048 15.552 72.1617 16.362 71.0817C16.4847 70.7135 16.4847 70.3453 16.362 69.9772C16.0306 70.4926 15.6318 70.9528 15.1654 71.3578C14.3186 71.6033 13.8277 71.2965 13.6927 70.4374C14.3554 69.1978 15.1838 68.0626 16.1779 67.0317C16.4356 66.6267 16.497 66.1972 16.362 65.7431C15.957 66.0867 15.6195 66.4856 15.3495 66.9397C14.0609 67.3079 13.5393 66.8476 13.7848 65.559C14.5948 64.479 15.4538 63.4359 16.362 62.4295C16.4847 62.0613 16.4847 61.6932 16.362 61.325C16.0306 61.8404 15.6318 62.3007 15.1654 62.7057C13.7909 62.8161 13.392 62.2332 13.9688 60.9568C14.8402 60.0241 15.6379 59.0423 16.362 58.0114C16.767 57.4959 17.2886 57.3425 17.9268 57.5512C19.0067 58.6925 20.0192 59.8891 20.9642 61.1409C21.271 62.5645 20.7495 63.0247 19.3995 62.5216C19.1295 62.0675 18.792 61.6686 18.387 61.325C18.3502 61.5091 18.3195 61.6932 18.2949 61.8773C18.8717 63.0431 19.6388 64.0863 20.596 65.0068C21.1483 65.6449 21.179 66.2892 20.6881 66.9397C19.6204 67.0501 18.8533 66.5899 18.387 65.559C18.3502 65.7431 18.3195 65.9272 18.2949 66.1113C18.9577 67.4858 19.8474 68.7131 20.9642 69.7931C21.3324 71.0817 20.8722 71.6033 19.5836 71.3578C19.1172 70.9528 18.7183 70.4926 18.387 69.9772C18.2643 70.3453 18.2643 70.7135 18.387 71.0817C19.2952 72.088 20.1542 73.1312 20.9642 74.2112C21.2588 75.058 20.9826 75.6103 20.1358 75.868C19.3995 75.5121 18.8165 74.9598 18.387 74.2112C18.3502 74.3953 18.3195 74.5794 18.2949 74.7635C18.9331 76.0398 19.7615 77.2057 20.7801 78.2612C21.4306 79.6111 21.0317 80.1941 19.5836 80.01C19.1172 79.605 18.7183 79.1448 18.387 78.6293C18.2643 78.9975 18.2643 79.3657 18.387 79.7339C19.2952 80.7402 20.1542 81.7834 20.9642 82.8634C21.2219 84.2625 20.7004 84.7227 19.3995 84.244C19.1295 83.79 18.792 83.3911 18.387 83.0475C18.3502 83.207 18.3195 83.3604 18.2949 83.5077C18.8963 84.784 19.7247 85.9193 20.7801 86.9133C20.952 87.1956 21.044 87.5024 21.0563 87.8338C21.0563 88.4474 20.7495 88.7542 20.1358 88.7542C19.3626 88.5088 18.7797 88.0179 18.387 87.2815C18.3502 87.4656 18.3195 87.6497 18.2949 87.8338C18.8717 88.9997 19.6388 90.0428 20.596 90.9633C21.5042 92.4483 21.1054 93.0926 19.3995 92.8962C19.0558 92.4299 18.7183 91.9696 18.387 91.5155C18.2888 94.8905 18.2581 98.2655 18.2949 101.64H27.6835C27.7203 98.3268 27.6896 95.0132 27.5914 91.6996C27.3214 92.1537 26.9839 92.5526 26.5789 92.8962C25.7199 93.203 25.2289 92.9269 25.1062 92.0678C25.7444 90.7915 26.5728 89.6256 27.5914 88.5701C27.7141 88.202 27.7141 87.8338 27.5914 87.4656C27.3214 87.9197 26.9839 88.3185 26.5789 88.6622C25.7199 88.969 25.2289 88.6929 25.1062 87.8338C25.6708 86.4961 26.4992 85.3302 27.5914 84.3361C27.751 82.9861 27.4748 82.9554 26.763 84.244C25.413 84.7472 24.8915 84.287 25.1983 82.8634L27.5914 79.918C27.7141 79.5498 27.7141 79.1816 27.5914 78.8134C27.3214 79.2675 26.9839 79.6664 26.5789 80.01C25.6585 80.3291 25.1676 80.0223 25.1062 79.0896C25.6462 77.8746 26.4133 76.8007 27.4073 75.868C27.6651 75.463 27.7264 75.0335 27.5914 74.5794C27.1496 75.1194 26.628 75.5489 26.0267 75.868C25.3885 75.7698 25.0817 75.4016 25.1062 74.7635C25.7444 73.4871 26.5728 72.3212 27.5914 71.2658C27.7141 70.8976 27.7141 70.5294 27.5914 70.1612C27.2723 70.5785 26.9348 70.9774 26.5789 71.3578C25.6585 71.6769 25.1676 71.3701 25.1062 70.4374C25.5726 69.2838 26.2783 68.2713 27.2232 67.3999C27.6405 66.9213 27.7632 66.369 27.5914 65.7431C27.3214 66.1972 26.9839 66.5961 26.5789 66.9397C25.1308 67.1238 24.7319 66.5408 25.3824 65.1908L27.5914 62.6136C27.7141 62.2454 27.7141 61.8773 27.5914 61.5091C27.2969 61.8282 27.0207 62.1657 26.763 62.5216C25.413 63.0247 24.8915 62.5645 25.1983 61.1409C26.0083 60.2695 26.7446 59.3491 27.4073 58.3796C28.0946 57.3364 28.8923 57.2137 29.8005 58.0114C30.5246 59.0423 31.3223 60.0241 32.1936 60.9568C32.7214 61.9018 32.4759 62.5154 31.4573 62.7977C30.7455 62.5154 30.1932 62.0245 29.8005 61.325C29.6778 61.6932 29.6778 62.0613 29.8005 62.4295C30.6105 63.5095 31.4696 64.5527 32.3777 65.559C32.6232 66.8476 32.1016 67.3079 30.813 66.9397C30.543 66.4856 30.2055 66.0867 29.8005 65.7431C29.7637 65.9272 29.733 66.1113 29.7084 66.2954C30.4816 67.584 31.3714 68.8113 32.3777 69.9772C32.5986 71.1185 32.1384 71.5787 30.9971 71.3578C30.5307 70.9528 30.1318 70.4926 29.8005 69.9772C29.6287 70.6031 29.7514 71.1553 30.1687 71.634L32.1936 74.0271C32.7214 74.9598 32.4759 75.5735 31.4573 75.868C30.7332 75.5735 30.1809 75.0826 29.8005 74.3953C29.6778 74.7635 29.6778 75.1316 29.8005 75.4998C30.7087 76.5062 31.5677 77.5493 32.3777 78.6293C32.6232 79.4761 32.3164 79.967 31.4573 80.102C30.7455 79.8198 30.1932 79.3289 29.8005 78.6293C29.7637 78.8134 29.733 78.9975 29.7084 79.1816C30.3466 80.4579 31.175 81.6238 32.1936 82.6793C32.7214 83.612 32.4759 84.2256 31.4573 84.5202C30.7332 84.2256 30.1809 83.7347 29.8005 83.0475C29.6778 83.4156 29.6778 83.7838 29.8005 84.152C30.7087 85.1583 31.5677 86.2015 32.3777 87.2815C32.5986 88.6192 32.0771 89.0488 30.813 88.5701C30.5062 88.1774 30.1687 87.8092 29.8005 87.4656C29.7637 87.6251 29.733 87.7785 29.7084 87.9258C30.4816 89.1899 31.3714 90.3865 32.3777 91.5155C32.6232 92.8042 32.1016 93.2644 30.813 92.8962C30.543 92.4421 30.2055 92.0433 29.8005 91.6996C29.7023 95.0132 29.6716 98.3268 29.7084 101.64C40.631 101.702 51.5536 101.64 62.4763 101.456C61.8381 100.487 61.3472 99.4436 61.0035 98.3268C61.0158 97.9955 61.1079 97.6887 61.2797 97.4064C61.9424 96.8296 62.556 96.2159 63.1206 95.5655C63.2433 94.7678 63.2433 93.9701 63.1206 93.1723C62.3474 90.3742 61.7031 87.5515 61.1876 84.7043C59.8376 84.4711 58.4877 84.2563 57.1377 84.06C56.5118 83.7286 55.9288 83.3297 55.3888 82.8634C54.9716 80.9734 55.1557 79.1325 55.9411 77.3407C56.3093 76.543 56.8615 75.9294 57.5979 75.4998C57.6715 74.8126 57.7943 74.1376 57.9661 73.4748C58.7883 71.6217 59.4633 69.7194 59.9911 67.7681C60.752 66.7249 61.7644 66.0806 63.0285 65.8352C64.4153 65.5652 65.6119 65.9027 66.6182 66.8476C66.7655 66.5163 66.9803 66.2402 67.2626 66.0192C69.7171 64.6693 71.4352 65.2829 72.417 67.8601C72.7116 67.9951 72.9877 68.1485 73.2454 68.3204C73.405 69.474 72.8834 70.0262 71.6807 69.9772C71.558 70.4067 71.5273 70.8362 71.5886 71.2658C72.5582 72.7876 73.6014 74.2603 74.7182 75.6839C75.0372 76.813 75.7122 77.6721 76.7431 78.2612C77.2218 77.5371 77.8661 77.353 78.6761 77.7089C78.9706 78.5434 79.2161 79.4025 79.4124 80.2861C79.3388 81.1207 78.9399 81.7343 78.2158 82.127C77.9336 83.1211 77.504 84.0415 76.9272 84.8884C75.6631 89.9938 74.3745 95.0869 73.0614 100.168C72.5705 100.806 72.0182 100.867 71.4046 100.352C71.2818 99.9223 71.2818 99.4927 71.4046 99.0632C72.8527 93.4055 74.2334 87.7295 75.5466 82.035C74.0493 80.9304 72.5459 79.7952 71.0364 78.6293C70.5578 80.7893 70.5578 82.937 71.0364 85.0724C71.7236 89.0856 70.8646 92.706 68.4591 95.9337C68.1646 96.4491 67.9498 97.0014 67.8148 97.5905C68.1707 97.885 68.5696 98.1305 69.0114 98.3268C69.5759 99.8364 69.0544 100.695 67.4466 100.904V101.64H103.344C103.381 98.3268 103.35 95.0132 103.252 91.6996C102.933 92.1169 102.595 92.5158 102.239 92.8962C101.81 93.0189 101.38 93.0189 100.951 92.8962C100.693 92.7244 100.57 92.479 100.583 92.1599C101.123 90.9449 101.89 89.871 102.884 88.9383C103.583 87.0851 103.369 86.9931 102.239 88.6622C100.963 89.0426 100.441 88.5824 100.675 87.2815C101.583 86.2752 102.442 85.232 103.252 84.152C103.375 83.7838 103.375 83.4156 103.252 83.0475C102.933 83.4647 102.595 83.8636 102.239 84.244C101.393 84.649 100.84 84.4036 100.583 83.5077C101.184 82.2313 102.012 81.0961 103.068 80.102C103.326 79.6357 103.387 79.1448 103.252 78.6293C102.945 79.0834 102.608 79.513 102.239 79.918C101.331 80.323 100.779 80.0468 100.583 79.0896C101.356 77.8255 102.246 76.6289 103.252 75.4998C103.375 75.1316 103.375 74.7635 103.252 74.3953C102.871 75.0826 102.319 75.5735 101.595 75.868C100.576 75.5735 100.331 74.9598 100.859 74.0271C101.73 73.0944 102.528 72.1126 103.252 71.0817C103.375 70.7135 103.375 70.3453 103.252 69.9772C102.921 70.4926 102.522 70.9528 102.055 71.3578C101.209 71.6033 100.718 71.2965 100.583 70.4374C101.27 69.0997 102.16 67.9031 103.252 66.8476C103.375 66.4795 103.375 66.1113 103.252 65.7431C102.847 66.0867 102.509 66.4856 102.239 66.9397C101.344 67.2588 100.791 66.9826 100.583 66.1113C101.356 64.8104 102.246 63.5831 103.252 62.4295C103.375 62.0613 103.375 61.6932 103.252 61.325C102.921 61.8404 102.522 62.3007 102.055 62.7057C100.546 62.7179 100.208 62.0736 101.043 60.7727C101.853 59.9014 102.589 58.9809 103.252 58.0114C103.657 57.4959 104.178 57.3425 104.817 57.5512C105.897 58.6925 106.909 59.8891 107.854 61.1409C108.161 62.5645 107.639 63.0247 106.289 62.5216C106.081 62.1288 105.805 61.7913 105.461 61.5091C105.424 61.6932 105.393 61.8773 105.369 62.0613C105.946 63.2272 106.713 64.2704 107.67 65.1908C108.063 65.8045 108.032 66.3874 107.578 66.9397C106.572 67.1115 105.866 66.7126 105.461 65.7431C105.424 65.9272 105.393 66.1113 105.369 66.2954C106.007 67.5717 106.836 68.7376 107.854 69.7931C108.222 71.0817 107.762 71.6033 106.473 71.3578C106.118 70.9774 105.78 70.5785 105.461 70.1612C105.338 70.5294 105.338 70.8976 105.461 71.2658C106.332 72.1985 107.13 73.1803 107.854 74.2112C108.173 75.1071 107.897 75.6594 107.026 75.868C106.351 75.5366 105.829 75.0457 105.461 74.3953C105.326 74.9107 105.387 75.4016 105.645 75.868L107.854 78.4452C108.222 79.7339 107.762 80.2554 106.473 80.01C106.118 79.6295 105.78 79.2307 105.461 78.8134C105.338 79.1816 105.338 79.5498 105.461 79.918C106.332 80.8507 107.13 81.8325 107.854 82.8634C108.161 84.287 107.639 84.7472 106.289 84.244C105.393 82.8204 105.179 82.9125 105.645 84.5202C106.627 85.4652 107.394 86.539 107.946 87.7417C107.995 88.4044 107.688 88.7419 107.026 88.7542C106.314 88.5701 105.792 88.1406 105.461 87.4656C105.424 87.6497 105.393 87.8338 105.369 88.0179C105.946 89.1838 106.713 90.2269 107.67 91.1474C107.977 91.7242 108.008 92.3071 107.762 92.8962C106.67 93.1539 105.903 92.7551 105.461 91.6996C105.363 95.0132 105.332 98.3268 105.369 101.64H114.757C114.794 98.2655 114.764 94.8905 114.665 91.5155C114.322 91.9819 113.984 92.4421 113.653 92.8962C112.364 93.2644 111.843 92.8042 112.088 91.5155C112.898 90.4356 113.757 89.3924 114.665 88.386C114.788 88.0179 114.788 87.6497 114.665 87.2815C114.334 87.797 113.935 88.2572 113.469 88.6622C112.61 88.969 112.119 88.6929 111.996 87.8338C112.634 86.5574 113.463 85.3915 114.481 84.3361C114.739 83.9311 114.8 83.5015 114.665 83.0475C114.26 83.3911 113.923 83.79 113.653 84.244C112.352 84.7227 111.83 84.2625 112.088 82.8634C112.996 81.857 113.855 80.8139 114.665 79.7339C114.788 79.3657 114.788 78.9975 114.665 78.6293C114.334 79.1448 113.935 79.605 113.469 80.01C112.021 80.1941 111.622 79.6111 112.272 78.2612L114.481 75.6839C114.739 75.2789 114.8 74.8494 114.665 74.3953C114.26 74.7389 113.923 75.1378 113.653 75.5919C112.401 75.9969 111.88 75.5366 112.088 74.2112C112.898 73.1312 113.757 72.088 114.665 71.0817C114.788 70.7135 114.788 70.3453 114.665 69.9772C114.334 70.4926 113.935 70.9528 113.469 71.3578C112.647 71.591 112.156 71.3149 111.996 70.5294C112.536 69.2776 113.303 68.1731 114.297 67.2158C114.715 66.7372 114.837 66.1849 114.665 65.559C114.322 66.0254 113.984 66.4856 113.653 66.9397C112.364 67.3079 111.843 66.8476 112.088 65.559C112.898 64.479 113.757 63.4359 114.665 62.4295C114.788 62.0613 114.788 61.6932 114.665 61.325C114.346 61.7423 114.009 62.1411 113.653 62.5216C112.303 63.0247 111.781 62.5645 112.088 61.1409C112.96 60.2082 113.757 59.2264 114.481 58.1955C114.899 57.5328 115.482 57.318 116.23 57.5512C117.2 58.668 118.151 59.8032 119.084 60.9568C119.611 61.9141 119.366 62.5277 118.347 62.7977C117.635 62.5154 117.083 62.0245 116.69 61.325C116.568 61.6932 116.568 62.0613 116.69 62.4295C117.599 63.4359 118.458 64.479 119.268 65.559C119.513 66.8476 118.992 67.3079 117.703 66.9397C117.359 66.4733 117.022 66.0131 116.69 65.559C116.555 66.0745 116.617 66.5654 116.874 67.0317L119.084 69.609C119.734 70.9467 119.335 71.5296 117.887 71.3578C117.421 70.9528 117.022 70.4926 116.69 69.9772C116.568 70.3453 116.568 70.7135 116.69 71.0817C117.5 72.1617 118.359 73.2048 119.268 74.2112C119.476 75.5366 118.955 75.9969 117.703 75.5919C117.433 75.1378 117.095 74.7389 116.69 74.3953C116.654 74.5548 116.623 74.7082 116.598 74.8555C117.2 76.1319 118.028 77.2671 119.084 78.2612C119.255 78.5434 119.347 78.8502 119.36 79.1816C119.36 79.7952 119.053 80.102 118.439 80.102C117.666 79.8566 117.083 79.3657 116.69 78.6293C116.568 78.9975 116.568 79.3657 116.69 79.7339C117.5 80.8139 118.359 81.857 119.268 82.8634C119.464 84.2011 118.942 84.6613 117.703 84.244C117.433 83.79 117.095 83.3911 116.69 83.0475C116.654 83.2316 116.623 83.4156 116.598 83.5997C117.175 84.7656 117.942 85.8088 118.899 86.7292C119.452 87.3674 119.482 88.0117 118.992 88.6622C117.924 88.7726 117.157 88.3124 116.69 87.2815C116.568 87.6497 116.568 88.0179 116.69 88.386C117.599 89.3924 118.458 90.4356 119.268 91.5155C119.513 92.8042 118.992 93.2644 117.703 92.8962C117.433 92.4421 117.095 92.0433 116.69 91.6996C116.592 95.0132 116.562 98.3268 116.598 101.64C120.268 101.702 123.919 101.64 127.552 101.456C129.27 98.4496 130.743 95.3201 131.97 92.0678C138.793 72.6894 137.321 53.9737 127.552 35.9207C124.078 40.0075 120.611 44.0881 117.151 48.1626C119.458 51.5744 121.759 54.9801 124.054 58.3796C124.152 58.6496 124.06 58.8643 123.778 59.0239C123.361 59.2816 122.962 59.5577 122.581 59.8523L104.909 33.3435L88.893 58.7477C88.7703 58.9932 88.7703 59.2386 88.893 59.4841C89.7521 60.6868 90.5805 61.9141 91.3782 63.1659C90.8627 63.5831 90.3105 63.9513 89.7214 64.2704C82.4069 53.3846 75.1354 42.462 67.9069 31.5026C67.7841 31.3676 67.6307 31.3062 67.4466 31.3185C60.6354 42.4866 53.64 53.5319 46.4605 64.4545ZM68.183 67.9522C68.9194 68.1976 69.6557 68.1976 70.3921 67.9522C70.1589 67.3754 69.7294 67.1299 69.1034 67.2158C68.7107 67.3263 68.4039 67.5717 68.183 67.9522ZM61.5558 68.8726C62.734 69.1549 63.8385 68.9708 64.8694 68.3204C65.0535 68.2222 65.0842 68.0994 64.9614 67.9522C64.4951 67.6454 63.9735 67.5226 63.3967 67.584C62.6849 67.854 62.0713 68.2835 61.5558 68.8726ZM64.1331 70.7135C64.0594 72.9717 63.6912 75.1807 63.0285 77.3407C63.5931 78.8257 63.9919 80.3598 64.2251 81.9429C64.5319 81.6607 64.808 81.3538 65.0535 81.0225C64.808 80.7402 64.5933 80.4334 64.4092 80.102C64.0778 78.3593 64.2006 76.6412 64.7774 74.9476C65.0474 74.6898 65.3542 74.5057 65.6978 74.3953C65.8942 73.1803 66.0476 71.953 66.158 70.7135C66.1458 70.3208 65.9617 70.0753 65.6058 69.9772C65.1517 70.2594 64.6608 70.5049 64.1331 70.7135ZM59.3467 75.868C59.9113 76.0398 60.4329 76.2853 60.9115 76.6044C61.0588 76.5798 61.1815 76.5184 61.2797 76.4203C61.9179 74.6407 62.194 72.7999 62.1081 70.8976H61.0035C60.2672 72.493 59.7149 74.1498 59.3467 75.868ZM67.7228 73.843C67.551 76.2485 67.3055 78.6416 66.9864 81.0225C66.9251 81.4643 66.7717 81.8632 66.5262 82.2191C67.3239 82.1577 68.091 81.9429 68.8273 81.5748C68.8764 80.0898 69.0605 78.6171 69.3796 77.1566C69.5146 76.5062 69.7907 75.9232 70.208 75.4078C70.6621 75.2728 71.0916 75.3341 71.4966 75.5919C71.7421 76.1073 72.0489 76.5675 72.417 76.9725C72.6257 76.8498 72.8098 76.6964 72.9693 76.5123C71.9507 75.1869 70.9996 73.8062 70.1159 72.3703C69.7846 72.0512 69.3857 71.9285 68.9194 72.0021C68.3794 72.5176 67.9805 73.1312 67.7228 73.843ZM58.2422 82.3111C58.5858 82.5566 58.862 82.4952 59.0706 82.127C59.3406 81.1943 59.494 80.2432 59.5308 79.2736C59.5308 78.795 59.4081 78.3962 59.1627 78.0771C58.7577 79.4639 58.4508 80.8752 58.2422 82.3111ZM60.8195 82.5872C61.3717 82.8941 61.924 82.8634 62.4763 82.4952C62.2431 81.1452 61.8749 79.8566 61.3717 78.6293C61.4576 79.9916 61.2735 81.3109 60.8195 82.5872ZM76.559 83.0475C76.8659 82.7406 76.8965 82.4338 76.6511 82.127C76.5161 82.4338 76.4854 82.7406 76.559 83.0475ZM66.3421 84.244C65.2253 84.2686 64.1208 84.2993 63.0285 84.3361C63.4703 87.0238 64.1146 89.6624 64.9614 92.2519C65.2069 91.5278 65.2683 90.7915 65.1455 90.0428C64.6669 88.6315 64.2067 87.2201 63.7649 85.8088C64.084 84.8515 64.6669 84.6674 65.5137 85.2565L66.9864 89.6747C67.2196 92.2519 66.5139 94.5223 64.8694 96.4859C65.1026 96.6455 65.3174 96.8296 65.5137 97.0382C66.876 95.0623 68.0419 92.976 69.0114 90.7792C69.3673 88.5088 69.3673 86.2383 69.0114 83.9679C68.9623 83.7961 68.8703 83.6734 68.7353 83.5997C67.9989 83.9434 67.2012 84.1581 66.3421 84.244ZM63.0285 98.5109C63.2494 98.9405 63.4642 99.37 63.6728 99.7995C64.0042 100.499 64.5258 100.898 65.2376 100.996C64.8203 100.284 64.5442 99.5173 64.4092 98.695C64.1515 98.3391 63.814 98.0937 63.3967 97.9586L63.0285 98.5109ZM18.0188 111.029C33.74 129.094 53.5909 137.041 77.5715 134.868C98.5454 131.813 114.745 121.442 126.171 103.757C88.4328 103.659 50.6946 103.629 12.9564 103.665C14.4536 106.243 16.1411 108.697 18.0188 111.029Z" fill="white"/>
<path opacity="0.9" fillRule="evenodd" clipRule="evenodd" d="M45.5401 9.22803C50.9646 9.53484 53.9713 12.3882 54.5604 17.7882C53.6277 24.0595 50.0073 26.7594 43.6992 25.8881C38.8761 24.0595 36.9431 20.5924 37.9004 15.487C39.1522 11.8053 41.6988 9.71893 45.5401 9.22803ZM45.7242 11.253L43.8833 11.7132C40.2506 13.4314 38.9926 16.2234 40.1095 20.0893C41.7417 23.3415 44.3496 24.5994 47.9332 23.8631C50.7191 22.7954 52.2532 20.7704 52.5354 17.7882C52.0323 13.7627 49.7618 11.5844 45.7242 11.253Z" fill="#27422B"/>
<path opacity="0.8" fillRule="evenodd" clipRule="evenodd" d="M61.7397 19.9051C62.7338 19.8438 63.5929 20.1506 64.317 20.8256C65.0288 20.1138 65.8572 19.8683 66.8022 20.0892C66.8881 20.3224 66.9188 20.5679 66.8942 20.8256C66.5261 20.801 66.1579 20.8317 65.7897 20.9176C65.262 21.2981 64.7711 21.6969 64.317 22.1142C63.8874 21.8687 63.5193 21.5312 63.2125 21.1017C62.7461 20.8685 62.2552 20.7765 61.7397 20.8256V19.9051Z" fill="#27422B"/>
<path opacity="0.8" fillRule="evenodd" clipRule="evenodd" d="M23.8174 23.0344C24.8115 22.8994 25.6399 23.2062 26.3026 23.9548C26.9776 23.243 27.806 22.9669 28.7878 23.1264C29.0332 23.3719 29.0332 23.6173 28.7878 23.8628C28.3337 23.9118 27.9042 24.0346 27.4992 24.2309C27.1555 24.6359 26.7567 24.9734 26.3026 25.2434C25.9467 24.9489 25.6092 24.6114 25.2901 24.2309C24.8115 24.0591 24.3206 23.9057 23.8174 23.7707C23.5719 23.5253 23.5719 23.2798 23.8174 23.0344Z" fill="#27422B"/>
<path opacity="0.8" fillRule="evenodd" clipRule="evenodd" d="M87.3282 23.0344C88.3222 22.8994 89.1506 23.2062 89.8134 23.9548C90.5497 23.2307 91.4395 22.9239 92.4826 23.0344C92.5195 23.3412 92.4581 23.6173 92.2986 23.8628C91.8445 23.9118 91.4149 24.0346 91.0099 24.2309C90.6663 24.6359 90.2674 24.9734 89.8134 25.2434C89.4574 24.9489 89.12 24.6114 88.8009 24.2309C88.3222 24.0591 87.8313 23.9057 87.3282 23.7707C87.1686 23.5498 87.1686 23.3044 87.3282 23.0344Z" fill="#27422B"/>
<path opacity="0.8" fillRule="evenodd" clipRule="evenodd" d="M29.5244 26.532C30.4939 26.397 31.353 26.6425 32.1017 27.2684C32.8503 26.6425 33.7094 26.397 34.6789 26.532V27.2684C34.0898 27.2929 33.5375 27.4463 33.0221 27.7286C32.7766 28.1213 32.4698 28.4588 32.1017 28.7411C31.6476 28.3729 31.218 27.974 30.813 27.5445C30.3958 27.3604 29.9662 27.2684 29.5244 27.2684V26.532Z" fill="#27422B"/>
<path opacity="0.8" fillRule="evenodd" clipRule="evenodd" d="M111.444 34.8164C112.426 34.7427 113.254 35.0495 113.929 35.7368C114.764 34.8164 115.653 34.6629 116.598 35.2766C116.574 35.4238 116.513 35.5466 116.414 35.6448L115.31 35.8288C114.831 36.2093 114.371 36.6082 113.929 37.0254C113.475 36.7554 113.076 36.4179 112.733 36.0129C112.328 35.8166 111.898 35.6938 111.444 35.6448C111.223 35.3748 111.223 35.0986 111.444 34.8164Z" fill="#27422B"/>
</svg>
