<svg width="24" height="24" viewBox="0 0 139 139" fill="none" xmlns="http://www.w3.org/2000/svg">
<path opacity="0.9" fillRule="evenodd" clipRule="evenodd" d="M66.2934 0.0124678C90.9743 -0.394563 110.74 9.16449 125.59 28.6896C137.16 45.4889 140.922 63.9286 136.876 84.0088C131.597 105.507 119.109 121.264 99.4109 131.28C79.6391 140.21 59.8426 140.271 40.0215 131.465C24.7147 124.052 13.5213 112.612 6.44146 97.1448C-0.811087 79.9631 -1.36613 62.5718 4.77633 44.9708C13.8667 22.3128 30.2404 7.91256 53.8975 1.7701C58.0172 0.894367 62.1491 0.30849 66.2934 0.0124678ZM41.6866 8.06057C22.3835 17.3729 9.95672 32.3899 4.4063 53.1115C0.385336 70.6384 2.82135 87.1972 11.7144 102.788C12.1461 102.874 12.5777 102.905 13.0094 102.88C13.0465 97.7615 13.0156 92.6427 12.9169 87.524C12.2879 88.4984 11.517 89.331 10.6043 90.0217C9.30917 89.8614 9.03165 89.2138 9.77171 88.0791L12.9169 84.1938C13.0403 83.3921 13.0403 82.5903 12.9169 81.7886C12.2756 82.6767 11.5663 83.5092 10.7893 84.2863C9.99989 84.4466 9.50652 84.1383 9.30917 83.3612C10.4316 81.6714 11.6342 80.0371 12.9169 78.4584C13.0403 77.6566 13.0403 76.8549 12.9169 76.0532L11.6218 77.7183C11.3012 78.1377 10.9003 78.446 10.4193 78.6434C9.25983 78.2857 9.04399 77.6073 9.77171 76.6082L12.9169 72.7229C13.0403 71.9212 13.0403 71.1195 12.9169 70.3177C12.2632 71.0948 11.6157 71.8657 10.9743 72.6304C10.0739 72.9388 9.51885 72.6304 9.30917 71.7053C10.3946 70.0526 11.5972 68.4799 12.9169 66.9875C13.0403 66.1241 13.0403 65.2607 12.9169 64.3973C12.3372 65.347 11.628 66.1796 10.7893 66.895C9.97522 67.1293 9.48185 66.821 9.30917 65.9699C10.3699 64.2925 11.5725 62.7198 12.9169 61.2521C13.0403 60.3887 13.0403 59.5253 12.9169 58.6619C12.2756 59.5499 11.5663 60.3825 10.7893 61.1596C9.99989 61.3199 9.50652 61.0115 9.30917 60.2345C10.3082 58.6187 11.4492 57.1077 12.7319 55.7016C13.0156 54.8012 13.0773 53.8762 12.9169 52.9264C12.2632 53.7035 11.6157 54.4744 10.9743 55.2391C9.54352 55.5598 9.08099 55.0356 9.58669 53.6665L12.9169 49.5962C13.0403 48.7945 13.0403 47.9927 12.9169 47.191C12.2632 47.9681 11.6157 48.739 10.9743 49.5037C10.0739 49.812 9.51885 49.5037 9.30917 48.5786C10.2712 47.0492 11.3505 45.5999 12.5469 44.2308C13.287 42.948 14.1504 42.8247 15.1371 43.8608L18.0973 47.561C18.381 47.8817 18.5352 48.2518 18.5599 48.6711C18.4365 49.5345 17.9432 49.812 17.0798 49.5037C16.4137 48.7513 15.7662 47.9804 15.1371 47.191C15.0138 48.0544 15.0138 48.9178 15.1371 49.7812L18.4674 53.8515C18.714 55.1466 18.1898 55.6091 16.8947 55.2391C16.3027 54.5237 15.7168 53.8145 15.1371 53.1115C15.0138 53.9132 15.0138 54.7149 15.1371 55.5166L18.2823 59.4019C18.8497 60.5613 18.5105 61.1472 17.2648 61.1596C16.5 60.4565 15.7908 59.6856 15.1371 58.8469C15.0138 59.6486 15.0138 60.4503 15.1371 61.2521L18.2823 65.1374C18.8621 66.4201 18.4612 67.006 17.0798 66.895C16.4137 66.1426 15.7662 65.3717 15.1371 64.5823C15.0138 65.4457 15.0138 66.3091 15.1371 67.1725C16.0745 68.3813 17.0613 69.553 18.0973 70.6878C18.381 71.0085 18.5352 71.3785 18.5599 71.7979C18.4365 72.6612 17.9432 72.9388 17.0798 72.6304C16.3274 71.952 15.6798 71.1811 15.1371 70.3177C15.0138 71.1811 15.0138 72.0445 15.1371 72.9079L18.4674 76.9782C18.677 78.3103 18.1528 78.7729 16.8947 78.3658C16.3027 77.6505 15.7168 76.9412 15.1371 76.2382C15.0138 77.0399 15.0138 77.8416 15.1371 78.6434L18.2823 82.5287C18.8621 83.8114 18.4612 84.3973 17.0798 84.2863C16.426 83.5092 15.7785 82.7383 15.1371 81.9736C15.0138 82.7753 15.0138 83.5771 15.1371 84.3788L18.4674 88.4491C18.751 89.5222 18.3502 90.0464 17.2648 90.0217C16.5 89.3187 15.7908 88.5478 15.1371 87.709C15.0384 92.7661 15.0076 97.8231 15.0446 102.88H24.6653C24.7023 99.2416 24.6715 95.603 24.5728 91.9644C24.2275 92.2481 23.9499 92.5872 23.7403 92.9819C23.1975 93.3643 22.6733 93.3335 22.1676 92.8894C21.9826 92.1987 22.106 91.582 22.5377 91.0393L24.5728 88.6341C24.6962 88.2641 24.6962 87.8941 24.5728 87.524C24.2028 88.1777 23.6786 88.6711 23.0002 89.0041C22.0258 88.6341 21.8099 87.9557 22.3526 86.969L24.5728 84.3788C24.6962 84.0088 24.6962 83.6387 24.5728 83.2687C24.2768 83.5894 23.9993 83.9286 23.7403 84.2863C22.7905 84.829 22.2355 84.5823 22.0751 83.5462C22.5438 82.3868 23.253 81.3692 24.2028 80.4935C24.6222 80.0125 24.7455 79.4574 24.5728 78.8284C24.3015 79.2847 23.9623 79.6856 23.5552 80.031C22.6918 80.3393 22.1985 80.0618 22.0751 79.1984C22.6425 77.854 23.4751 76.6822 24.5728 75.6831C24.7332 74.3264 24.4556 74.2955 23.7403 75.5906C22.3835 76.0963 21.8593 75.6338 22.1676 74.203L24.5728 71.2428C24.6962 70.8728 24.6962 70.5028 24.5728 70.1327C24.3015 70.5891 23.9623 70.99 23.5552 71.3353C22.6302 71.656 22.1368 71.3476 22.0751 70.4102C22.6302 69.2015 23.4011 68.1222 24.3878 67.1725C24.6468 66.7655 24.7085 66.3338 24.5728 65.8774C24.2028 66.2228 23.8636 66.5928 23.5552 66.9875C22.2601 67.3205 21.7976 66.8271 22.1676 65.5074C22.8954 64.4713 23.6971 63.4846 24.5728 62.5472C24.6962 62.1771 24.6962 61.8071 24.5728 61.4371C24.2521 61.8564 23.9129 62.2573 23.5552 62.6397C22.2601 62.8863 21.7976 62.3621 22.1676 61.067C23.1174 59.809 24.135 58.6064 25.2204 57.4593C25.6027 57.3359 25.9728 57.3668 26.3304 57.5518C27.3789 58.7605 28.3964 59.994 29.3832 61.2521C29.6299 62.1031 29.3215 62.5965 28.4581 62.7322C27.7427 62.4485 27.1877 61.9551 26.793 61.2521C26.6573 61.7701 26.719 62.2635 26.978 62.7322L29.1982 65.3224C29.7285 66.2598 29.4819 66.8765 28.4581 67.1725C27.7304 66.8765 27.1753 66.3831 26.793 65.6924C26.6696 66.0624 26.6696 66.4324 26.793 66.8025C27.607 67.8879 28.4704 68.9363 29.3832 69.9477C29.6175 71.2551 29.0933 71.7177 27.8106 71.3353C27.5392 70.8789 27.2 70.4781 26.793 70.1327C26.6696 70.4411 26.6696 70.7494 26.793 71.0578C27.5207 72.0939 28.3224 73.0806 29.1982 74.018C29.7285 74.9678 29.4819 75.5845 28.4581 75.8682C27.7427 75.5845 27.1877 75.0911 26.793 74.388C26.6696 74.7581 26.6696 75.1281 26.793 75.4981L29.1982 78.4584C29.7039 79.8151 29.2413 80.3393 27.8106 80.031C27.5392 79.5746 27.2 79.1737 26.793 78.8284C26.756 79.0134 26.7251 79.1984 26.7005 79.3834C27.2802 80.5552 28.0511 81.6036 29.0131 82.5287C29.6545 83.2194 29.6237 83.8669 28.9206 84.4713C27.9462 84.4836 27.237 84.0211 26.793 83.0837C26.756 83.2687 26.7251 83.4537 26.7005 83.6387C27.3419 84.9215 28.1744 86.0933 29.1982 87.154C29.7285 88.0914 29.4819 88.7081 28.4581 89.0041C27.7304 88.7081 27.1753 88.2147 26.793 87.524C26.756 87.6844 26.7251 87.8386 26.7005 87.9866C27.3049 89.2693 28.1374 90.4102 29.1982 91.4093C29.7039 92.2974 29.488 92.9141 28.5506 93.2595C27.7736 93.0004 27.1877 92.5071 26.793 91.7794C26.6943 95.4796 26.6635 99.1799 26.7005 102.88C30.8818 102.942 35.0446 102.88 39.1889 102.695C40.1263 97.2064 41.0205 91.7177 41.8716 86.2289C40.9465 86.2536 40.0215 86.2228 39.0964 86.1364C38.7264 86.0254 38.4489 85.8096 38.2638 85.4889C37.2031 77.4469 36.1855 69.3988 35.2111 61.3446C35.1864 59.7411 35.8957 59.2786 37.3388 59.957C38.5229 67.7645 39.5713 75.5968 40.484 83.4537C46.7251 83.6017 52.9848 83.6942 59.2629 83.7312C60.2127 84.1999 60.4285 84.9092 59.9105 85.8589C58.9237 86.1919 57.9061 86.3153 56.8577 86.2289L59.4479 102.88H69.0686C69.007 93.8638 69.0686 84.8598 69.2537 75.8682C62.7782 75.7201 56.3027 75.6276 49.8272 75.5906C49.5929 75.529 49.377 75.4365 49.1797 75.3131C48.6616 74.3634 48.8775 73.6542 49.8272 73.1855C63.3949 73.0621 76.9626 73.0621 90.5303 73.1855C91.221 73.2965 91.5293 73.6973 91.4553 74.388C91.5293 75.0788 91.221 75.4796 90.5303 75.5906L71.2888 75.7757C71.4245 76.0963 71.517 76.4355 71.5663 76.7932C71.665 85.4889 71.6958 94.1845 71.6588 102.88H82.5747C83.4257 97.4408 84.3508 92.0137 85.3499 86.599C85.3129 86.488 85.2512 86.3954 85.1649 86.3214C84.2151 86.2968 83.29 86.1734 82.3896 85.9514C81.5632 84.9523 81.7483 84.2123 82.9447 83.7312C89.1612 83.6942 95.3591 83.6017 101.539 83.4537C102.575 75.8805 103.561 68.2949 104.499 60.697C104.56 60.2653 104.776 59.9261 105.146 59.6794C106.17 59.4328 106.787 59.8336 106.996 60.882C105.985 68.8993 104.968 76.9166 103.944 84.9338C103.919 85.3409 103.765 85.6801 103.481 85.9514C102.445 86.1734 101.397 86.2968 100.336 86.3214C101.088 91.8225 101.952 97.3421 102.926 102.88H114.582C114.619 99.5499 114.588 96.2197 114.49 92.8894C114.157 93.4075 113.756 93.87 113.287 94.277C112.461 94.4991 111.967 94.1907 111.807 93.352C112.411 92.0692 113.244 90.9283 114.305 89.9292C114.564 89.5222 114.625 89.0905 114.49 88.6341C114.107 89.3248 113.552 89.8182 112.824 90.1142C111.801 89.8182 111.554 89.2015 112.084 88.2641C112.96 87.3267 113.762 86.3399 114.49 85.3039C114.613 84.9338 114.613 84.5638 114.49 84.1938C114.157 84.7118 113.756 85.1744 113.287 85.5814C112.436 85.8281 111.943 85.5197 111.807 84.6563C112.498 83.3119 113.392 82.1093 114.49 81.0485C114.613 80.6785 114.613 80.3085 114.49 79.9385C114.083 80.2838 113.743 80.6847 113.472 81.1411C112.177 81.5111 111.653 81.0485 111.899 79.7534C112.812 78.742 113.675 77.6936 114.49 76.6082C114.613 76.2382 114.613 75.8682 114.49 75.4981C114.157 76.0162 113.756 76.4787 113.287 76.8857C112.436 77.1324 111.943 76.8241 111.807 75.9607C112.473 74.7149 113.305 73.574 114.305 72.5379C114.564 72.1309 114.625 71.6992 114.49 71.2428C114.083 71.5882 113.743 71.989 113.472 72.4454C112.177 72.8154 111.653 72.3529 111.899 71.0578C112.713 69.9724 113.577 68.924 114.49 67.9126C114.613 67.5425 114.613 67.1725 114.49 66.8025C114.169 67.2218 113.83 67.6227 113.472 68.0051C112.584 68.5108 112.029 68.2641 111.807 67.265C112.411 65.9822 113.244 64.8413 114.305 63.8423C114.564 63.3736 114.625 62.8802 114.49 62.3621C114.181 62.8185 113.842 63.2502 113.472 63.6572C112.189 64.1259 111.665 63.6942 111.899 62.3621L114.675 58.8469C115.18 58.4028 115.704 58.372 116.247 58.7544C117.123 59.8521 118.017 60.9314 118.93 61.9921C119.325 62.6088 119.294 63.1947 118.837 63.7497C117.826 63.9224 117.117 63.5216 116.71 62.5472C116.537 63.1762 116.66 63.7312 117.08 64.2123L119.115 66.6175C119.423 68.0482 118.899 68.5108 117.542 68.0051C117.283 67.6474 117.006 67.3082 116.71 66.9875C116.673 67.1725 116.642 67.3575 116.617 67.5425C117.197 68.7143 117.968 69.7627 118.93 70.6878C119.325 71.3045 119.294 71.8904 118.837 72.4454C117.826 72.6181 117.117 72.2172 116.71 71.2428C116.673 71.4278 116.642 71.6128 116.617 71.7979C117.259 73.0806 118.091 74.2524 119.115 75.3131C119.436 76.2135 119.158 76.7686 118.282 76.9782C117.567 76.7809 117.043 76.3492 116.71 75.6831C116.586 76.0532 116.586 76.4232 116.71 76.7932C117.733 77.854 118.566 79.0257 119.207 80.3085C119.207 80.9252 118.899 81.2336 118.282 81.2336C117.641 81.0609 117.117 80.6908 116.71 80.1235C116.574 80.5798 116.636 81.0115 116.895 81.4186C117.894 82.356 118.665 83.4352 119.207 84.6563C119.257 85.3224 118.948 85.6616 118.282 85.6739C117.567 85.4889 117.043 85.0572 116.71 84.3788C116.673 84.5638 116.642 84.7488 116.617 84.9338C117.135 86.0439 117.844 87.0307 118.745 87.8941C119.029 88.2147 119.183 88.5848 119.207 89.0041C119.059 90.0649 118.504 90.3424 117.542 89.8367C117.333 89.442 117.055 89.1028 116.71 88.8191C116.673 88.9795 116.642 89.1337 116.617 89.2817C117.283 90.5274 118.116 91.6683 119.115 92.7044C119.436 93.6048 119.158 94.1599 118.282 94.3695C117.567 94.1722 117.043 93.7405 116.71 93.0744C116.611 96.343 116.58 99.6116 116.617 102.88H124.018C124.055 98.0698 124.024 93.2595 123.925 88.4491C123.383 89.3125 122.735 90.0834 121.983 90.7618C121.613 90.8851 121.243 90.8851 120.873 90.7618C120.379 90.1081 120.41 89.4605 120.965 88.8191C122.001 87.6844 122.988 86.5126 123.925 85.3039C124.049 84.5021 124.049 83.7004 123.925 82.8987C123.272 83.7374 122.562 84.5083 121.798 85.2114C120.552 85.2114 120.213 84.6255 120.78 83.4537L123.925 79.5684C124.049 78.7667 124.049 77.965 123.925 77.1633C123.272 78.002 122.562 78.7729 121.798 79.4759C120.552 79.4759 120.213 78.8901 120.78 77.7183L123.925 73.833C124.049 73.0313 124.049 72.2296 123.925 71.4278C123.272 72.2049 122.624 72.9758 121.983 73.7405C120.601 73.8515 120.2 73.2656 120.78 71.9829L123.925 68.0976C124.049 67.2958 124.049 66.4941 123.925 65.6924C123.272 66.4695 122.624 67.2403 121.983 68.0051C120.601 68.1161 120.2 67.5302 120.78 66.2474L123.925 62.3621C124.049 61.5604 124.049 60.7587 123.925 59.957C123.272 60.734 122.624 61.5049 121.983 62.2696C120.601 62.3806 120.2 61.7948 120.78 60.512C121.717 59.3032 122.704 58.1315 123.74 56.9967C124.024 56.0963 124.086 55.1713 123.925 54.2215C123.272 54.9986 122.624 55.7695 121.983 56.5342C120.601 56.6452 120.2 56.0593 120.78 54.7766C121.717 53.5678 122.704 52.3961 123.74 51.2613C124.024 50.3609 124.086 49.4358 123.925 48.4861C123.296 49.2755 122.649 50.0464 121.983 50.7988C120.601 50.9098 120.2 50.3239 120.78 49.0411L123.925 45.1559C124.147 44.8722 124.425 44.6563 124.758 44.5083C124.203 43.9039 124.295 43.4414 125.035 43.1207C125.664 43.3674 125.819 43.7991 125.498 44.4158C127.027 46.1549 128.446 47.9742 129.753 49.8737C129.581 50.7248 129.087 51.0331 128.273 50.7988C127.508 50.0957 126.799 49.3248 126.145 48.4861C126.022 49.2878 126.022 50.0896 126.145 50.8913C127.49 52.3591 128.692 53.9317 129.753 55.6091C129.581 56.4602 129.087 56.7686 128.273 56.5342C127.508 55.8312 126.799 55.0603 126.145 54.2215C126.022 55.0233 126.022 55.825 126.145 56.6267C127.49 58.0945 128.692 59.6671 129.753 61.3446C129.581 62.1956 129.087 62.504 128.273 62.2696C127.508 61.5666 126.799 60.7957 126.145 59.957C126.022 60.7587 126.022 61.5604 126.145 62.3621C127.49 63.8299 128.692 65.4025 129.753 67.08C129.581 67.9311 129.087 68.2394 128.273 68.0051C127.434 67.2897 126.725 66.4571 126.145 65.5074C126.022 66.3708 126.022 67.2342 126.145 68.0976C127.49 69.5654 128.692 71.138 129.753 72.8154C129.556 73.5925 129.062 73.9008 128.273 73.7405C127.434 73.0251 126.725 72.1925 126.145 71.2428C126.022 72.1062 126.022 72.9696 126.145 73.833C127.49 75.3008 128.692 76.8734 129.753 78.5509C129.556 79.3279 129.062 79.6363 128.273 79.4759C127.434 78.7605 126.725 77.928 126.145 76.9782C126.022 77.8416 126.022 78.705 126.145 79.5684C127.49 81.0362 128.692 82.6088 129.753 84.2863C129.556 85.0633 129.062 85.3717 128.273 85.2114C127.434 84.496 126.725 83.6634 126.145 82.7137C126.022 83.5154 126.022 84.3171 126.145 85.1189L129.476 89.1892C129.883 90.4473 129.42 90.9715 128.088 90.7618C127.434 89.9847 126.787 89.2138 126.145 88.4491C126.047 93.2595 126.016 98.0698 126.053 102.88C126.534 102.93 126.996 102.868 127.441 102.695C130.832 96.7747 133.299 90.4843 134.841 83.8238C139.035 63.2995 134.903 44.6748 122.445 27.9496C107.841 10.1142 88.9391 1.48024 65.7384 2.04762C57.3758 2.59033 49.3585 4.59465 41.6866 8.06057ZM41.6866 102.695C46.8053 102.942 51.924 102.942 57.0427 102.695C56.0807 97.2681 55.1248 91.841 54.175 86.4139C51.0175 86.2289 47.8414 86.1673 44.6468 86.2289C43.5984 91.693 42.6117 97.1818 41.6866 102.695ZM85.1649 102.88H100.336C99.4973 97.4408 98.603 92.0137 97.6533 86.599L97.3758 86.3214C94.2305 86.2228 91.0853 86.1919 87.9401 86.2289C86.941 91.767 86.0159 97.3174 85.1649 102.88ZM18.8374 112.871C32.3311 127.882 49.229 135.591 69.5312 135.998C93.731 135.233 112.572 124.903 126.053 105.008C88.3348 104.86 50.6536 104.891 13.0094 105.1C14.8103 107.777 16.7529 110.367 18.8374 112.871Z" fill="white"/>
</svg>
