<svg width="139" height="139" viewBox="0 0 139 139" fill="none" xmlns="http://www.w3.org/2000/svg">
<path opacity="0.9" fillRule="evenodd" clipRule="evenodd" d="M66.4197 0.00903181C91.0388 -0.336327 110.743 9.22272 125.532 28.6862C137.335 45.7938 141.036 64.5419 136.632 84.9304C131.144 106.195 118.594 121.705 98.9821 131.461C79.161 140.268 59.3645 140.206 39.5927 131.276C18.9821 120.768 6.30866 104.147 1.5723 81.4151C-2.14031 57.3387 4.48936 36.6479 21.4613 19.343C34.1039 7.52676 49.09 1.08211 66.4197 0.00903181ZM15.2633 29.6112C2.8304 47.5083 -0.499852 66.9964 5.27258 88.0756C9.10854 80.8724 12.963 73.6877 16.8359 66.5215C33.6105 66.3612 50.3851 66.392 67.1597 66.614L76.4104 81.7852C77.5452 81.8715 78.6553 82.0565 79.7407 82.3402C79.975 82.6856 79.975 83.0247 79.7407 83.3578C79.0499 83.3948 78.3716 83.4873 77.7055 83.6353C77.8289 84.1657 78.0755 84.6282 78.4456 85.0229C81.6525 85.1216 84.8594 85.1524 88.0663 85.1154C88.0046 84.6097 87.8813 84.1163 87.6963 83.6353C87.7826 83.4503 87.9059 83.2961 88.0663 83.1728C88.868 83.0371 89.6697 82.9446 90.4715 82.8952C91.7296 82.7472 92.6238 83.2406 93.1542 84.3754C93.7215 85.5224 93.444 86.355 92.3216 86.873C91.5322 87.0581 90.7305 87.1814 89.9164 87.2431C90.0521 87.4774 90.2063 87.6933 90.379 87.8906C91.4767 87.4466 92.6176 87.2924 93.8017 87.4281C98.3161 88.4148 100.444 91.2209 100.185 95.8462C99.4323 99.4355 97.243 101.501 93.6167 102.044C98.2421 102.143 102.867 102.174 107.493 102.137C108.628 95.3528 109.707 88.569 110.73 81.7852C108.769 80.3791 107.659 78.4672 107.4 76.0497C107.474 71.042 110.003 68.2668 114.986 67.7241C119.648 68.1805 122.208 70.7398 122.664 75.4022C122.454 78.3254 121.159 80.6072 118.779 82.2477C120.024 88.8095 121.258 95.3775 122.479 101.952C124.206 102.161 125.932 102.192 127.659 102.044C131.113 96.1237 133.549 89.8024 134.967 83.0803C139.013 61.9763 134.388 43.0433 121.091 26.281C106.512 9.50641 88.0416 1.42747 65.6796 2.04418C44.7607 3.82032 27.9553 13.0093 15.2633 29.6112ZM6.29016 91.3134C7.40024 94.4463 8.75701 97.4682 10.3605 100.379C21.2763 100.502 32.1921 100.502 43.1079 100.379L41.4428 100.194C41.0481 99.8117 40.9864 99.38 41.2578 98.8989C42.7256 98.7509 44.1748 98.7818 45.6056 98.9914C45.7536 99.3738 45.7228 99.7438 45.5131 100.102C44.9087 100.237 44.292 100.33 43.663 100.379C44.5264 100.502 45.3898 100.502 46.2532 100.379C52.3956 89.8456 58.5627 79.3306 64.7545 68.8342C49.2134 68.6492 33.6722 68.5875 18.131 68.6492C14.2581 76.2347 10.3111 83.7895 6.29016 91.3134ZM109.25 76.4198C110.225 79.7993 112.476 81.372 116.003 81.1376C119.383 80.1632 120.956 77.9122 120.721 74.3846C119.735 71.0297 117.483 69.4262 113.968 69.5742C110.626 70.6103 109.053 72.8922 109.25 76.4198ZM114.153 71.6094C116.447 71.412 117.958 72.3988 118.686 74.5696C118.896 77.2585 117.662 78.8003 114.986 79.195C111.606 78.4672 110.558 76.4938 111.841 73.2745C112.445 72.4605 113.216 71.9054 114.153 71.6094ZM52.5436 94.2736C53.0987 94.582 53.6845 94.7978 54.3013 94.9211C55.6334 94.2058 56.7434 93.219 57.6315 91.9609C61.0728 86.2872 63.4471 80.1817 64.7545 73.6446C60.6596 80.4901 56.5893 87.3664 52.5436 94.2736ZM113.228 75.4022C113.919 77.277 114.998 77.5545 116.466 76.2347C116.898 74.7176 116.312 73.8542 114.708 73.6446C113.931 73.9652 113.438 74.5511 113.228 75.4022ZM72.8026 86.0405C73.0123 86.5462 73.2898 87.0087 73.6352 87.4281C74.3259 87.6008 74.9735 87.8783 75.5779 88.2606C75.9602 87.7179 76.3611 87.1937 76.7804 86.688C74.1656 82.482 71.5137 78.2576 68.8248 74.0146C69.8363 78.1219 71.1622 82.1305 72.8026 86.0405ZM109.528 102.137C113.167 102.198 116.805 102.137 120.444 101.952C119.223 95.5502 118.02 89.1364 116.836 82.7102C115.455 83.1419 114.067 83.1419 112.673 82.7102C111.649 89.1857 110.601 95.6612 109.528 102.137ZM90.4715 83.7278C90.9895 83.9868 91.5445 84.141 92.1366 84.1903C91.7049 83.6846 91.1499 83.5305 90.4715 83.7278ZM91.8591 85.6704C91.9948 85.3251 91.9022 85.0476 91.5816 84.8379C90.6935 84.6405 89.8301 84.4247 88.9914 84.1903C89.201 86.0158 90.1569 86.5092 91.8591 85.6704ZM82.9784 92.516C84.8902 90.6658 86.7404 88.754 88.5288 86.7805C88.5288 86.4845 88.498 86.1762 88.4363 85.8555C85.2541 85.7938 82.1088 85.8555 79.0006 86.0405C80.3574 88.162 81.6833 90.3205 82.9784 92.516ZM76.2254 88.6307C77.9152 90.0244 78.9328 91.8129 79.2781 93.9961C79.4385 93.8851 79.531 93.7309 79.5556 93.5335C79.1733 92.1398 78.7724 90.7522 78.3531 89.3707C77.9707 88.6553 77.5082 88.0386 76.9655 87.5206C76.7928 87.94 76.5461 88.31 76.2254 88.6307ZM89.5464 88.1681C89.4107 87.9338 89.2565 87.7179 89.0839 87.5206C87.3571 89.4324 85.5686 91.2825 83.7185 93.071C83.6198 93.404 83.6815 93.7124 83.9035 93.9961C84.5079 95.0322 85.1554 96.0189 85.8461 96.9563C85.0197 93.1203 86.2532 90.191 89.5464 88.1681ZM90.8415 88.9082C91.5692 90.4006 92.2784 91.9116 92.9692 93.441C93.6352 92.0103 94.2828 90.561 94.9118 89.0932C94.8871 88.9452 94.8255 88.8219 94.7268 88.7232C93.7524 88.4888 92.7656 88.3963 91.7666 88.4457C91.4582 88.569 91.1499 88.7232 90.8415 88.9082ZM96.2069 89.4632C96.0096 89.2906 95.7937 89.1364 95.5594 89.0007C95.1647 89.8518 94.8255 90.7152 94.5418 91.5909C95.1585 90.9495 95.7135 90.2403 96.2069 89.4632ZM89.8239 89.7408C90.9957 91.2209 91.119 91.0975 90.1939 89.3707C90.0706 89.2351 89.9164 89.1734 89.7314 89.1857C89.7067 89.3831 89.7376 89.5681 89.8239 89.7408ZM89.0839 89.7408C88.7755 90.0244 88.498 90.3328 88.2513 90.6658C89.1887 91.4429 90.1754 92.1213 91.2115 92.701C90.5455 91.6896 89.8363 90.7028 89.0839 89.7408ZM97.132 91.1284C97.4527 90.9187 97.5452 90.6412 97.4095 90.2958C97.1258 90.1601 96.8791 89.9751 96.6694 89.7408C95.9911 90.8138 95.2818 91.8623 94.5418 92.886C95.4298 92.3433 96.2932 91.7574 97.132 91.1284ZM75.4853 90.8508C76.1267 91.9363 76.8976 92.923 77.798 93.8111C77.761 92.3186 77.1751 91.0852 76.0404 90.1108L75.4853 90.8508ZM67.1597 91.2209L67.3447 90.8508C67.2954 90.6288 67.1721 90.5055 66.9747 90.4808C66.9254 90.7522 66.987 90.9988 67.1597 91.2209ZM88.2513 91.4984C87.6593 91.1407 87.4742 91.2949 87.6963 91.9609C88.3623 92.2569 89.0407 92.5036 89.7314 92.701C89.275 92.2693 88.7817 91.8684 88.2513 91.4984ZM98.4271 91.6834L97.9645 91.2209C97.1875 91.7142 96.4783 92.2693 95.8369 92.886C96.7743 92.6393 97.6377 92.2384 98.4271 91.6834ZM67.1597 93.071L67.3447 92.516C67.3201 92.2323 67.1967 92.0473 66.9747 91.9609C66.9254 92.3556 66.987 92.7256 67.1597 93.071ZM93.9867 94.5511C95.5655 95.3282 97.169 95.9757 98.7971 96.4938C99.2535 95.3097 99.2843 94.1071 98.8896 92.886C98.8156 92.6146 98.6614 92.4296 98.4271 92.3309C96.9593 93.071 95.4792 93.8111 93.9867 94.5511ZM86.5862 94.6436C86.6602 95.47 86.876 96.2409 87.2337 96.9563C88.8495 96.1669 90.4838 95.396 92.1366 94.6436C90.4838 93.7309 88.757 93.0217 86.9562 92.516C86.8452 93.219 86.7219 93.9282 86.5862 94.6436ZM80.6657 93.256C80.5301 93.0217 80.4067 93.0217 80.2957 93.256C80.4561 93.4287 80.5794 93.4287 80.6657 93.256ZM66.4197 93.9961C66.654 93.7124 66.5923 93.5274 66.2346 93.441C66.1976 93.663 66.2593 93.8481 66.4197 93.9961ZM67.1597 93.9961C67.3817 93.7741 67.3201 93.6507 66.9747 93.626C66.95 93.7864 67.0117 93.9097 67.1597 93.9961ZM66.5122 97.8814C66.5492 97.3263 66.58 96.7713 66.6047 96.2162C66.6047 95.5872 66.4813 95.0322 66.2346 94.5511C66.1606 95.6859 66.2532 96.796 66.5122 97.8814ZM67.0672 98.6214C67.1412 98.7078 67.2337 98.7694 67.3447 98.8064C67.5544 97.573 67.5853 96.3396 67.4372 95.1062C67.3879 94.8101 67.2337 94.6251 66.9747 94.5511C66.95 95.9079 66.9809 97.2647 67.0672 98.6214ZM51.9886 100.472H54.5788V95.4762C53.7154 95.5502 52.9137 95.3652 52.1736 94.9211C51.9886 96.7589 51.9269 98.6091 51.9886 100.472ZM90.8415 100.657C92.408 101.15 93.9497 101.057 95.4669 100.379C94.6651 98.6276 93.8017 96.9316 92.8766 95.2912C92.1489 97.0673 91.4705 98.8558 90.8415 100.657ZM81.4058 95.8462C81.6401 95.7105 81.6401 95.5872 81.4058 95.4762C81.2331 95.6365 81.2331 95.7599 81.4058 95.8462ZM81.2208 96.5863C80.9248 96.4383 80.6164 96.3457 80.2957 96.3087C80.1107 96.0127 79.864 95.7969 79.5556 95.6612C79.6543 96.7343 80.2094 97.0426 81.2208 96.5863ZM87.5112 97.4188C88.535 97.5915 89.3367 97.2523 89.9164 96.4013C89.1147 96.7343 88.313 97.0735 87.5112 97.4188ZM96.947 99.084C97.3663 99.0716 97.6747 98.8558 97.872 98.4364C96.9346 97.6593 95.9479 96.981 94.9118 96.4013C95.6149 97.277 96.2932 98.1712 96.947 99.084ZM97.872 97.6038C98.2174 97.7025 98.4641 97.5792 98.6121 97.2338C97.8844 96.9008 97.1443 96.6233 96.3919 96.4013C96.8483 96.833 97.3417 97.2338 97.872 97.6038ZM88.9914 98.8064C88.3006 99.0408 88.3315 99.2875 89.0839 99.5465C89.7746 98.5844 90.4221 97.5977 91.0265 96.5863C89.9534 96.981 89.275 97.721 88.9914 98.8064ZM49.0284 100.287C49.6944 100.472 50.3728 100.533 51.0635 100.472C51.1252 99.2628 51.0635 98.091 50.8785 96.9563C50.3481 98.1034 49.7314 99.2135 49.0284 100.287ZM88.0663 100.842C87.5729 101.051 87.2029 101.39 86.9562 101.859C86.6479 101.736 86.3395 101.736 86.0311 101.859C85.0691 100.453 84.1748 99.0038 83.3484 97.5113L82.6084 97.1413C82.522 98.5598 82.4912 99.9782 82.5159 101.397C79.8023 101.36 77.0888 101.39 74.3753 101.489C72.6485 102.106 70.9217 102.106 69.1949 101.489C62.226 101.329 55.2572 101.36 48.2883 101.582C48.202 101.767 48.0786 101.921 47.9183 102.044C62.7194 102.168 77.5205 102.168 92.3216 102.044C90.6441 101.909 89.164 101.323 87.8813 100.287C87.8936 100.484 87.9553 100.669 88.0663 100.842ZM79.1856 100.472H81.5908V97.5113C80.7151 97.8197 79.9133 97.6964 79.1856 97.1413V100.472ZM89.5464 99.824C89.7067 100.009 89.8918 100.163 90.1014 100.287L91.2115 97.8814C91.1869 97.7704 91.1252 97.7087 91.0265 97.6964C90.6441 98.4734 90.1508 99.1826 89.5464 99.824ZM96.1144 100.102L96.5769 99.639C96.1082 99.0223 95.6149 98.4364 95.0968 97.8814C95.2818 98.6954 95.621 99.4355 96.1144 100.102ZM66.4197 100.472C66.6787 100.089 66.617 99.7808 66.2346 99.5465C66.1853 99.8795 66.247 100.188 66.4197 100.472ZM23.4964 117.77C38.8033 131.671 56.8113 137.592 77.5205 135.532C98.5874 132.485 114.869 122.094 126.364 104.357C88.4363 104.172 50.5085 104.11 12.5806 104.172C15.6149 109.155 19.2535 113.688 23.4964 117.77Z" fill="white"/>
</svg>
